{"title":"Snabba.Cash.Livet.Deluxe.2013.SWEDiSH.BRRip.XviD-Stiffy","uid":9324997,"size":1281900946,"categoryP":"video","categoryS":"movies","magnet":"?xt=urn:btih:41d4ff0cf20e0a94b0726873f8fd4d6b04b04d74&amp;dn=Snabba.Cash.Livet.Deluxe.2013.SWEDiSH.BRRip.XviD-Stiffy&amp;tr=udp%3A%2F%2Ftracker.openbittorrent.com%3A80&amp;tr=udp%3A%2F%2Fopen.demonii.com%3A1337&amp;tr=udp%3A%2F%2Ftracker.coppersurfer.tk%3A6969&amp;tr=udp%3A%2F%2Fexodus.desync.com%3A6969","seeders":1,"leechers":0,"uploader":"Mr.Stifmeister","files":-1,"time":1386619493,"description":"General\nComplete name : Snabba.Cash.Livet.Deluxe.2013.SWEDiSH.BRRip.XviD-Stiffy.avi\nFormat : AVI\nFormat/Info : Audio Video Interleave\nFormat profile : OpenDML\nFile size : 1.19 GiB\nDuration : 2h 7mn\nOverall bit rate : 1 345 Kbps\nWriting application : Lavf52.31.0\n\nVideo\nID : 0\nFormat : xvid\nCodec ID : xvid\nDuration : 2h 7mn\nBit rate : 1 201 Kbps\nWidth : 640 pixels\nHeight : 480 pixels\nDisplay aspect ratio : 4:3\nFrame rate : 29.970 fps\nBits/(Pixel*Frame) : 0.130\nStream size : 1.07 GiB (89%)\n\nAudio\nID : 1\nFormat : MPEG Audio\nFormat version : Version 1\nFormat profile : Layer 3\nMode : Joint stereo\nMode extension : MS Stereo\nCodec ID : 55\nCodec ID/Hint : MP3\nDuration : 2h 7mn\nBit rate mode : Constant\nBit rate : 128 Kbps\nChannel(s) : 2 channels\nSampling rate : 44.1 KHz\nCompression mode : Lossy\nStream size : 116 MiB (10%)\nAlignment : Aligned on interleaves\nInterleave, duration : 26 ms (0.78 video frame)\nInterleave, preload duration : 78 ms","torrent":{"xt":"urn:btih:41d4ff0cf20e0a94b0726873f8fd4d6b04b04d74","amp;dn":"Snabba.Cash.Livet.Deluxe.2013.SWEDiSH.BRRip.XviD-Stiffy","amp;tr":["udp%3A%2F%2Ftracker.openbittorrent.com%3A80","udp%3A%2F%2Fopen.demonii.com%3A1337","udp%3A%2F%2Ftracker.coppersurfer.tk%3A6969","udp%3A%2F%2Fexodus.desync.com%3A6969"],"infoHash":"41d4ff0cf20e0a94b0726873f8fd4d6b04b04d74","infoHashBuffer":{"type":"Buffer","data":[65,212,255,12,242,14,10,148,176,114,104,115,248,253,77,107,4,176,77,116]},"announce":[],"urlList":[]}}